<svg width="1000" height="1000" viewBox="0 0 1000 1000" fill="none" xmlns="http://www.w3.org/2000/svg">
<path d="M212 84C212 70.1929 223.193 59 237 59H626.988C640.795 59 651.988 70.1929 651.988 84V836.388H212V84Z" fill="#F9D923"/>
<rect x="174" y="836.389" width="515.219" height="104.868" fill="#F9D923"/>
<rect x="242" y="95.4785" width="378.435" height="353.358" rx="25" fill="white"/>
<path d="M431.348 396.658L507.742 289.072L431.348 334.178L355 289.072L431.343 396.658H431.348Z" fill="#36AE7C"/>
<path d="M431.343 319.723H431.348L507.696 274.595L431.348 147.914H431.343L355 274.595L431.343 319.723Z" fill="#36AE7C"/>
<rect x="652.75" y="428.319" width="25.077" height="95.7486" fill="#F9D923"/>
<path d="M730.251 513.805C730.251 470.034 700.615 462.891 685.797 464.791H676.678V495.568L696.055 513.805V726.96C741.65 814.502 786.485 763.436 803.203 726.96V406.658H826V256.196H765.587C750.085 256.196 741.65 267.595 739.37 273.294V385.001C739.37 395.032 756.848 403.619 765.587 406.658V726.96C749.173 752.493 735.191 737.599 730.251 726.96V513.805Z" fill="#AAA6A1"/>
<path d="M766.727 223.14V260.755H800.923V204.902C800.923 190.312 772.046 179.825 757.608 176.405C729.339 176.405 730.631 195.403 734.811 204.902L766.727 223.14Z" fill="#7D7A77"/>
</svg>
