<svg width="1000" height="1000" viewBox="0 0 1000 1000" fill="none" xmlns="http://www.w3.org/2000/svg">
<path d="M739.271 381.069H662.654V355.842C662.654 313.556 696.984 279.225 739.27 279.225H739.271V381.069V381.069Z" fill="#AAA6A1"/>
<path d="M722.286 333.977L735.46 393.228L658.266 380.41L689.722 324.373L722.286 333.977Z" fill="#EFA8A8"/>
<path d="M648.277 570.082H722.286V460.549H648.277V570.082Z" fill="#FFB6B6"/>
<path d="M770.388 659.633L754.106 746.963C754.106 746.963 764.467 807.651 733.383 869.818L712.661 933.466L681.577 929.025C681.577 929.025 700.819 881.66 700.819 860.937C700.819 840.215 705.26 760.285 705.26 760.285L703.04 669.079L770.388 659.633Z" fill="#AAA6A1"/>
<path d="M677.139 927.54C677.139 927.54 712.663 914.219 715.624 933.461L714.143 942.342C714.143 942.342 727.465 982.307 708.223 985.267C688.98 988.228 671.218 992.668 669.738 983.787C668.258 974.906 668.281 963.82 671.97 956.041C675.659 948.263 677.139 927.54 677.139 927.54Z" fill="#01304E"/>
<path d="M658.342 646.083L649.694 734.496C649.694 734.496 622.864 789.908 635.432 858.267L637.636 925.167L668.729 929.547C668.729 929.547 663.418 878.698 669.181 858.793C674.945 838.888 692.908 760.877 692.908 760.877L720.406 673.886L658.342 646.083V646.083Z" fill="#AAA6A1"/>
<path d="M673.397 929.359C673.397 929.359 642.979 906.684 634.784 924.343L633.736 933.286C633.736 933.286 609.825 967.969 627.485 976.164C645.145 984.359 660.972 993.564 664.863 985.445C668.755 977.326 671.816 966.671 670.436 958.173C669.056 949.676 673.397 929.359 673.397 929.359V929.359Z" fill="#01304E"/>
<path d="M752.629 519.755C787.442 552.241 790.024 603.642 769.651 664.812C769.651 664.812 704.523 709.218 657.157 652.971L633.475 538.997L752.629 519.755Z" fill="#AAA6A1"/>
<path d="M694.16 361.376L731.165 367.297L728.204 460.548L769.649 543.438L716.363 570.082C716.363 570.082 674.918 491.632 667.517 442.786C660.116 393.94 664.557 358.416 664.557 358.416L694.16 361.376Z" fill="#36AE7C"/>
<path d="M666.037 364.337L629.032 370.258L631.992 463.509L623.111 549.36L643.834 573.043C643.834 573.043 685.279 494.593 692.68 445.747C700.081 396.901 695.64 361.377 695.64 361.377L666.037 364.337Z" fill="#36AE7C"/>
<path d="M710.444 366.557L718.585 364.336C718.585 364.336 747.449 360.636 751.889 372.477C756.33 384.319 754.85 453.887 754.85 453.887C754.85 453.887 762.487 539.272 732.765 540.245C703.043 541.218 708.964 470.169 708.964 470.169L710.444 366.557Z" fill="#36AE7C"/>
<path d="M709.365 350.238C730.522 350.238 747.674 333.086 747.674 311.929C747.674 290.772 730.522 273.621 709.365 273.621C688.208 273.621 671.057 290.772 671.057 311.929C671.057 333.086 688.208 350.238 709.365 350.238Z" fill="#FFB6B6"/>
<path d="M661.591 369.519L653.45 367.298C653.45 367.298 624.587 363.598 620.146 375.439C615.706 387.281 617.186 456.849 617.186 456.849C617.186 456.849 609.548 542.233 639.27 543.207C668.992 544.18 663.071 473.131 663.071 473.131L661.591 369.519Z" fill="#36AE7C"/>
<path d="M687.236 364.65C679.018 362.565 669.701 371.342 666.423 384.26C665.043 389.402 664.914 394.8 666.048 400.002L662.516 414.686L662.257 414.672L634.402 480.317C627.926 495.58 628.61 513.102 636.871 527.478C641.785 536.03 648.236 541.779 655.81 535.911C668.378 526.172 676.587 470.414 680.335 438.384L689.001 405.826C692.48 401.793 694.942 396.986 696.181 391.806C699.46 378.893 695.454 366.735 687.236 364.65V364.65Z" fill="#FFB6B6"/>
<path d="M636.023 342.917C637.971 336.992 641.818 331.805 643.539 325.81C645.824 317.85 650.689 335.509 651.164 327.241C652.066 311.527 676.05 271.103 689.742 263.339C703.434 255.574 711.298 257.915 725.248 265.207C725.248 265.207 732.019 265.638 740.449 269.8C748.879 273.962 756.467 280.627 759.745 289.438C762.344 296.422 762.057 304.092 762.925 311.493C765.344 332.112 776.902 351.721 774.421 372.333C773.647 378.763 771.203 385.413 765.945 389.195C760.687 392.978 752.193 392.566 748.732 387.091C747.551 385.223 747.052 383.007 746.039 381.042C745.027 379.077 743.199 377.245 740.989 377.306C737.668 377.398 735.978 381.854 737.287 384.908C738.597 387.961 741.674 389.804 744.564 391.444C737.682 394.54 729.146 393.576 723.128 389.023C717.11 384.471 713.861 376.518 714.968 369.054C716.528 358.536 731.852 360.713 733.657 350.234C734.971 342.605 739.585 329.841 738.328 322.203C737.072 314.565 731.035 323.813 737.394 319.4C730.398 322.773 715.432 299.699 708.108 297.115C700.783 294.53 694.573 288.934 691.243 281.917C683.474 293.179 676.64 290.121 673.858 303.516C671.076 316.911 673.648 347.344 685.105 354.822C680.52 357.951 676.865 362.424 674.714 367.54C673.495 370.439 672.705 373.61 670.682 376.017C666.819 380.615 659.686 380.895 654 378.962C646.95 376.565 640.923 371.3 637.599 364.636C634.276 357.973 633.696 349.991 636.023 342.917L636.023 342.917Z" fill="#5B2B32"/>
<path d="M116.395 986.895C116.395 987.872 117.179 988.656 118.156 988.656H891.239C892.216 988.656 893 987.872 893 986.895C893 985.918 892.216 985.133 891.239 985.133H118.156C117.179 985.133 116.395 985.918 116.395 986.895Z" fill="#3F3D56"/>
<path d="M227.621 200.079C224.949 200.079 222.775 202.252 222.775 204.925V243.693C222.775 246.366 224.949 248.539 227.621 248.539C230.294 248.539 232.467 246.366 232.467 243.693V204.925C232.467 202.252 230.294 200.079 227.621 200.079Z" fill="#3F3D56"/>
<path d="M684.804 361.691C693.022 359.606 702.34 368.383 705.617 381.301C706.998 386.443 707.126 391.841 705.993 397.043L709.524 411.727L709.784 411.713L737.638 477.358C744.115 492.621 743.43 510.143 735.17 524.519C730.256 533.071 723.805 538.82 716.231 532.952C703.663 523.213 695.454 467.455 691.706 435.425L683.039 402.867C679.56 398.834 677.099 394.027 675.859 388.847C672.581 375.934 676.586 363.776 684.804 361.691V361.691Z" fill="#FFB6B6"/>
<path d="M285.108 347.945C283.936 373.382 264.421 392.557 239.001 394.052C211.512 395.668 187.011 378.021 192.894 347.945C199.444 314.452 214.018 306.75 239.001 301.838C268.277 296.082 286.373 320.461 285.108 347.945Z" fill="#2F2E41"/>
<path d="M378.132 526.325C376.666 527.199 375.025 527.741 373.326 527.912C371.627 528.083 369.911 527.88 368.3 527.316C366.688 526.753 365.219 525.843 363.997 524.65C362.776 523.457 361.83 522.011 361.227 520.414L307.308 530.881L254.575 509.288L268.037 487.75L307.35 507.461L368.779 504.962C371.53 504.127 374.492 504.331 377.102 505.534C379.713 506.737 381.792 508.856 382.945 511.489C384.098 514.123 384.245 517.087 383.358 519.822C382.471 522.556 380.612 524.87 378.132 526.325V526.325Z" fill="#A0616A"/>
<path d="M212.307 482.589C212.307 482.589 208.688 487.586 220.584 493.004C230.108 497.342 281.262 525.022 295.608 527.331C295.751 529.362 296.566 531.288 297.925 532.805C299.284 534.322 301.108 535.344 303.112 535.71L311.211 506.617C307.563 500.828 303.51 502.937 301.479 504.697L285.737 492.294L242.409 464.964L214.859 478.93L212.307 482.589Z" fill="#F2F2F2"/>
<path d="M287.413 418.25L267.273 414.818L230.324 431.709L209.576 718.724L274.733 688.591C285.235 683.735 297.119 682.762 308.271 685.847V685.847C310.192 686.379 312.215 686.424 314.158 685.978C316.101 685.533 317.903 684.611 319.4 683.295C320.898 681.98 322.045 680.313 322.738 678.443C323.43 676.574 323.647 674.562 323.368 672.588L287.413 418.25Z" fill="#F2F2F2"/>
<path d="M227.018 943.013H242.831L250.356 882.02H227.018V943.013Z" fill="#A0616A"/>
<path d="M218.665 970.413H230.005L232.029 959.707L237.213 970.413H267.29C268.732 970.413 270.136 969.953 271.297 969.098C272.458 968.244 273.316 967.041 273.745 965.664C274.174 964.288 274.152 962.811 273.682 961.448C273.212 960.085 272.318 958.908 271.132 958.089L247.113 941.501V930.677L221.85 932.185L218.665 970.413Z" fill="#2F2E41"/>
<path d="M148.193 909.365L160.949 918.71L203.068 873.959L184.242 860.165L148.193 909.365Z" fill="#A0616A"/>
<path d="M125.273 926.536L134.421 933.239L142.381 925.799L140.235 937.499L164.496 955.276C165.659 956.128 167.064 956.586 168.506 956.583C169.947 956.58 171.35 956.117 172.51 955.26C173.67 954.403 174.525 953.199 174.951 951.821C175.377 950.444 175.352 948.967 174.879 947.605L165.309 920.029L171.707 911.298L150.437 897.583L125.273 926.536Z" fill="#2F2E41"/>
<path d="M284.946 663.411C284.07 675.56 269.316 719.892 269.316 719.892L266.676 746.703L259.161 823.091L251.034 905.645C238.885 927.35 218.045 912.561 218.045 912.561V898.729C218.045 898.729 216.42 886.246 214.783 870.419C212.362 847.147 209.907 816.636 212.489 807.852C212.235 806.664 212.042 805.464 211.913 804.256C209.262 783.692 202.807 691.501 212.028 681.646C198.11 667.781 189.652 649.367 188.202 629.776C187.995 626.929 187.822 623.943 187.718 620.842C187.015 601.247 200.398 578.286 205.631 570.125C206.899 568.142 206.213 564.869 206.213 564.869L282.854 595.277L284.497 597.512V607.045L284.946 663.411Z" fill="#AAA6A1"/>
<path d="M266.68 746.708L259.164 823.095L214.786 870.424L193.992 892.602C171.135 902.399 163.619 877.974 163.619 877.974L172.045 867.012C172.045 867.012 195.698 826.265 211.916 804.261C216.4 798.186 220.319 793.529 223.005 791.57C229.068 787.167 247.384 763.237 264.582 739.861L266.68 746.708Z" fill="#AAA6A1"/>
<path d="M186.032 567.764C186.113 569.461 186.464 571.134 187.069 572.721C187.139 572.917 187.208 573.101 187.288 573.297C188.711 576.697 191.236 579.519 194.458 581.308C195.406 581.843 196.407 582.279 197.443 582.611L206.423 584.052L283.64 596.397L286.741 587.072L280.897 572.456L284.77 559.892L285.297 486.719C294.178 469.256 295.965 452.822 285.646 438.146V438.054L271.618 415.681L262.281 401.537L232.335 400.581L228.082 411.37L219.679 416.395C201.051 427.53 194.343 447.921 194.746 469.626C201.167 494.489 196.441 522.13 191.657 551.765L187.749 559.58C186.483 562.115 185.892 564.934 186.032 567.764Z" fill="#F9D923"/>
<path opacity="0.2" d="M186.035 567.761C186.117 569.457 186.467 571.13 187.073 572.717L194.461 581.305C195.41 581.839 196.41 582.275 197.447 582.607L206.426 584.048L193.435 559.623L221.987 497.113L186.035 567.761Z" fill="black"/>
<path d="M256.305 421.712L228.096 411.364L191.147 428.254L192.908 546.2C181.944 555.25 179.736 568.296 187.616 585.946L173.367 692.977C173.075 695.172 173.377 697.405 174.243 699.443C175.109 701.48 176.506 703.248 178.288 704.562C180.071 705.875 182.173 706.686 184.376 706.909C186.579 707.132 188.801 706.759 190.811 705.83L218.923 692.829C240.163 683.006 264.201 681.039 286.755 687.279V687.279L256.305 421.712Z" fill="#F2F2F2"/>
<path d="M210.821 363.991C212.135 373.569 217.197 382.235 224.896 388.084C232.595 393.932 242.301 396.485 251.881 395.181C261.461 393.877 270.132 388.823 275.988 381.13C281.844 373.437 284.406 363.733 283.111 354.152L283.041 353.634C281.529 344.181 276.363 335.702 268.655 330.024C260.948 324.347 251.318 321.926 241.842 323.285C232.366 324.644 223.804 329.673 218.003 337.288C212.202 344.903 209.627 354.493 210.833 363.989L210.821 363.991Z" fill="#A0616A"/>
<path d="M296.634 350.246C288.695 352.231 280.39 352.231 272.451 350.246C271.977 347.876 271.112 345.601 269.892 343.514C269.736 345.819 269.239 348.087 268.416 350.246C261.758 354.862 246.674 352.345 232.084 350.246V313.36H259.748C283.166 311.261 300.162 327.451 296.634 350.246Z" fill="#2F2E41"/>
<path d="M226.749 294.941C224.645 292.01 220.492 290.731 216.765 291.063C213.117 291.557 209.636 292.896 206.597 294.974C201.399 298.176 196.717 302.148 192.712 306.756C189.256 310.747 186.324 316.279 189.033 320.919C191.294 324.79 196.814 326.287 201.396 325.426C205.978 324.564 209.808 321.875 213.355 319.14C216.902 316.405 220.442 313.492 224.819 312.031L221.289 311.753C223.689 309.574 225.694 306.995 227.213 304.131C227.944 302.692 228.286 301.087 228.205 299.474C228.123 297.862 227.621 296.299 226.749 294.941V294.941Z" fill="#2F2E41"/>
<path d="M476.529 933.503C432.28 933.948 388.066 930.881 344.302 924.333C298.489 916.579 277.151 905.044 277.151 888.023L277.182 887.347L352.286 315.36L314.96 208.36C312.929 202.651 312.321 196.533 313.188 190.536C314.055 184.539 316.371 178.844 319.935 173.944C323.41 168.948 328.074 164.896 333.507 162.154C338.939 159.411 344.969 158.065 351.052 158.236L600.325 160.83C606.267 160.891 612.11 162.356 617.378 165.105C622.646 167.853 627.19 171.808 630.639 176.646C634.088 181.485 636.345 187.07 637.225 192.946C638.106 198.823 637.585 204.824 635.705 210.461L600.762 315.291L675.893 887.306V887.579C675.903 906.013 651.864 918.045 600.241 925.664C559.224 931.028 517.895 933.647 476.529 933.503V933.503ZM350.21 166.561C345.596 166.558 341.049 167.67 336.957 169.802C332.864 171.934 329.348 175.023 326.706 178.806C323.929 182.623 322.125 187.059 321.45 191.731C320.775 196.402 321.249 201.168 322.831 205.615L360.809 314.483L360.68 315.464L285.477 888.112L285.481 888.246C285.487 896.192 295.931 907.694 345.692 916.111C388.996 922.584 432.746 925.612 476.529 925.167C517.488 925.312 558.41 922.723 599.024 917.418C655.676 909.058 667.561 896.696 667.557 887.803L592.247 314.473L627.797 207.823C629.261 203.432 629.666 198.758 628.98 194.181C628.294 189.604 626.536 185.253 623.849 181.485C621.163 177.716 617.623 174.636 613.52 172.495C609.417 170.354 604.865 169.214 600.237 169.166L350.912 166.57C350.678 166.563 350.444 166.561 350.21 166.561Z" fill="white"/>
<path opacity="0.5" d="M618.649 817.963H334.396L379.456 513.263L380.684 504.864L399.456 378.017C400.601 370.279 409.509 376.288 415.808 371.649C454.913 342.852 494.487 342.017 534.405 369.773C540.575 374.063 549.098 369.042 550.249 376.469L569.97 503.701L571.876 516.008L618.649 817.963Z" fill="#F9D923"/>
<path d="M583.543 860.62H369.151C363.531 860.62 357.976 859.409 352.866 857.069C347.756 854.729 343.21 851.315 339.538 847.06C335.866 842.805 333.154 837.808 331.587 832.411C330.02 827.013 329.635 821.341 330.457 815.781L393.096 392.208C393.419 390.042 394.309 388 395.675 386.289C397.041 384.577 398.835 383.257 400.875 382.462C402.915 381.666 405.129 381.424 407.293 381.76C409.457 382.095 411.494 382.996 413.198 384.372C451.373 414.953 492.98 414.265 536.86 382.335C538.561 381.091 540.556 380.309 542.65 380.065C544.743 379.822 546.864 380.124 548.806 380.943C550.788 381.757 552.526 383.071 553.85 384.756C555.174 386.441 556.038 388.44 556.36 390.559L622.199 815.517C623.062 821.093 622.709 826.791 621.163 832.218C619.618 837.645 616.916 842.674 613.244 846.958C609.572 851.243 605.016 854.683 599.889 857.041C594.762 859.399 589.186 860.62 583.543 860.62V860.62Z" fill="#F9D923"/>
<path d="M497.289 810.958H375.481V817.807H497.289V810.958Z" fill="white"/>
<path d="M497.289 769.867H375.481V776.716H497.289V769.867Z" fill="white"/>
<path d="M497.289 728.786H375.481V735.636H497.289V728.786Z" fill="white"/>
<path d="M497.289 687.679H375.481V694.529H497.289V687.679Z" fill="white"/>
<path d="M497.289 646.576H375.481V653.426H497.289V646.576Z" fill="white"/>
<path d="M577.622 538.766C568.175 548.148 556.81 555.374 544.307 559.95C531.804 564.525 518.46 566.342 505.189 565.274C490.299 563.473 475.932 558.661 462.962 551.13C449.229 543.767 435.941 534.965 420.735 530.855C407.413 527.259 391.624 526.78 380.186 535.684C379.251 536.409 378.109 536.816 376.926 536.847C375.744 536.878 374.582 536.53 373.61 535.856L374.912 526.951C381.263 522.837 388.392 520.072 395.857 518.829C403.321 517.586 410.961 517.891 418.303 519.725C448.852 525.89 472.037 551.164 503.34 554.795C516.842 556.315 530.511 554.457 543.118 549.387C555.725 544.318 566.875 536.197 575.567 525.752L575.601 525.718L577.622 538.766Z" fill="white"/>
<path d="M241.131 272.61C315.21 272.61 375.263 213.823 375.263 141.305C375.263 68.7873 315.21 10 241.131 10C167.053 10 107 68.7873 107 141.305C107 213.823 167.053 272.61 241.131 272.61Z" fill="#F9D923"/>
<path d="M286.661 75.072C268.804 107.588 250.946 140.104 233.089 172.62C221.708 152.511 210.39 132.367 198.981 112.274C195.04 105.334 184.323 111.576 188.273 118.533C201.499 141.825 214.587 165.195 227.813 188.487C230.074 192.469 236.282 192.562 238.52 188.487C258.136 152.768 277.752 117.049 297.368 81.3308C301.212 74.3318 290.507 68.0675 286.661 75.072H286.661Z" fill="white"/>
<path d="M260.911 319.12H231.231C223.206 319.12 215.509 322.308 209.835 327.983C204.16 333.658 200.972 341.355 200.972 349.38V349.38C200.973 361.069 205.332 372.337 213.198 380.983C221.064 389.629 231.87 395.031 243.507 396.135L233.247 366.38L253.056 396.349H260.911C234.12 373.995 241.634 347.301 260.911 319.12Z" fill="#2F2E41"/>
<path d="M292.086 614.521C290.508 613.868 289.092 612.878 287.938 611.62C286.784 610.361 285.92 608.865 285.407 607.236C284.894 605.608 284.744 603.887 284.968 602.194C285.192 600.501 285.785 598.878 286.704 597.439L246.049 560.507L231.787 505.338L257.099 503.232L264.836 546.525L303.603 594.241C305.918 595.946 307.527 598.44 308.126 601.252C308.725 604.063 308.271 606.997 306.852 609.497C305.432 611.996 303.145 613.888 300.423 614.814C297.702 615.74 294.735 615.636 292.086 614.521V614.521Z" fill="#A0616A"/>
<path d="M227.903 455.52C227.903 455.52 221.733 455.612 224.512 468.385C226.737 478.611 235.177 536.158 241.913 549.032C240.371 550.363 239.316 552.169 238.914 554.165C238.511 556.162 238.785 558.235 239.691 560.059L267.846 549.136C270.3 542.749 266.185 540.764 263.559 540.191L264.075 520.156L260.038 469.088L232.361 455.375L227.903 455.52Z" fill="#F2F2F2"/>
</svg>
