<svg width="610" height="493.80512" xmlns="http://www.w3.org/2000/svg" data-name="Layer 1">
 <g>
  <title>Layer 1</title>
  <path stroke="null" fill="#a0616a" d="m322.86365,151.34302a11.69178,12.20776 0 0 0 -1.19136,1.46673l-55.08046,-2.03184l-6.30021,-12.33611l-19.07289,7.4938l9.11969,22.97572a8.89076,9.28312 0 0 0 9.18304,5.67315l62.32976,-7.14568a11.66941,12.1844 0 1 0 1.01243,-16.08997l0,-0.0058z" data-name="Path 704" id="ad4b1b16-27d0-4c9f-840a-ee213421f5fc"/>
  <circle stroke="null" id="svg_1" fill="#2f2e41" r="32.16224" cy="57.81518" cx="217.38118"/>
  <ellipse stroke="null" transform="matrix(0.785839 -0.82052 0.785839 0.82052 -282.697 -229.533)" id="svg_2" fill="#2f2e41" ry="8.98136" rx="11.97515" cy="457.29431" cx="138.14034"/>
  <ellipse stroke="null" transform="matrix(0.436565 -1.06711 1.02201 0.455831 -599.105 59.8952)" id="svg_3" fill="#2f2e41" ry="11.97515" rx="8.98136" cy="680.94393" cx="324.90071"/>
  <path stroke="null" id="svg_4" fill="#ccc" d="m264.17576,148.48989l-24.68135,11.52367a5.3532,5.58945 0 0 1 -7.33942,-3.59293l-7.27837,-27.09877a14.86687,15.52297 0 0 1 27.17882,-12.59013l14.449,23.65117a5.35321,5.58946 0 0 1 -2.32877,8.10698l0.00009,0l0,0.00001z"/>
  <path stroke="null" id="svg_5" fill="#a0616a" d="m150.18781,261.8724a11.93887,12.46576 0 0 0 8.27349,-17.05126l44.01183,-103.82248l-25.17703,-6.62119l-35.3454,104.13612a12.00353,12.53327 0 0 0 8.23711,23.35879l0,0.00001l0,0.00001z"/>
  <polygon stroke="null" id="svg_6" fill="#a0616a" points="138.19041442871094,450.0597839355469 150.99310302734375,454.92645263671875 175.06593322753906,405.6818542480469 156.16973876953125,398.4990234375 138.19041442871094,450.0597839355469 "/>
  <path stroke="null" id="svg_7" fill="#ccc" d="m171.3552,476.72622l-40.23683,-15.29673a0,0 0 0 1 0,0l5.66032,-16.23217a0,0 0 0 1 0,0l24.6908,9.38663a-15.54604,-16.23211 0 0 1 9.88574,22.1422l0,0a0,0 0 0 1 -0.00002,0.00007l-0.00001,0z"/>
  <path stroke="null" id="svg_8" fill="#5b5a5f" d="m168.47304,421.72074a5.30519,5.53932 0 0 1 -2.27144,-0.53249l-14.71339,-7.27669a5.33289,5.56824 0 0 1 -2.74335,-6.95033l41.52401,-120.06344a5.35287,5.5891 0 0 1 9.6251,-0.97646l21.96278,38.21987a5.35898,5.59548 0 0 1 0.05779,5.64886l-48.7737,89.12028a5.37925,5.61665 0 0 1 -4.66779,2.8104l-0.00001,0z"/>
  <circle stroke="null" id="svg_9" fill="#a0616a" r="27.29576" cy="65.83188" cx="218.40123"/>
  <path stroke="null" id="svg_10" fill="#ccc" d="m257.01715,195.41215l-48.33015,-13.87773l-25.70497,-53.67811a16.19896,16.91385 0 0 1 14.4892,-24.47799l38.45187,0a16.17784,16.8918 0 0 1 10.81353,4.31822c10.31486,9.64806 31.98547,37.46296 10.48969,87.23042l-0.20917,0.48519z"/>
  <path stroke="null" id="svg_11" fill="#ccc" d="m196.5152,159.56665l-24.48673,-11.96776a5.35321,5.58946 0 0 1 -2.19411,-8.14784l14.88138,-23.46621a14.86687,15.52297 0 0 1 26.89232,13.24396l-7.69495,26.87803a5.3532,5.58945 0 0 1 -7.39785,3.45982l-0.00006,0z"/>
  <polygon stroke="null" id="svg_12" fill="#a0616a" points="226.13999938964844,463.51568603515625 239.76507568359375,463.51568603515625 246.24755859375,408.6431579589844 226.1377716064453,408.6443176269531 226.13999938964844,463.51568603515625 "/>
  <path stroke="null" id="svg_13" fill="#ccc" d="m266.04229,476.72417l-42.82092,0.00205a0,0 0 0 1 0,0l-0.00076,-17.27458a0,0 0 0 1 0,0l26.27649,-0.00126a-16.54443,-17.27456 0 0 1 16.54519,17.27377l0,0a0,0 0 0 1 0,0.00001l0,0.00001z"/>
  <path stroke="null" id="svg_14" fill="#5b5a5f" d="m231.28519,442.60588a5.32481,5.5598 0 0 1 -5.22075,-4.42618c-3.91638,-19.26701 -24.25658,-117.95527 -40.132,-168.78894c-16.15247,-51.71915 11.35605,-75.27649 17.03451,-79.47341a4.18179,4.36634 0 0 0 1.39231,-1.75518l4.12553,-9.47583a5.37262,5.60972 0 0 1 4.88675,-3.2799l0.03341,0c30.92715,0.19287 41.32424,10.37222 44.35859,14.74017a5.29111,5.52462 0 0 1 0.8376,4.55596l-19.5682,84.29622a4.16763,4.35156 0 0 0 -0.08103,1.5975l19.46888,153.05535a5.35427,5.59056 0 0 1 -4.69304,6.28931l-21.81408,2.62732a5.47325,5.71479 0 0 1 -0.62849,0.03761l0.00001,0z"/>
  <path stroke="null" id="svg_15" fill="#2f2e41" d="m189.71974,47.90521a37.12423,38.76259 0 0 0 21.21632,6.84613a22.75011,23.75411 0 0 1 -9.01702,3.87338a74.85882,78.16247 0 0 0 30.57753,0.1794a19.79015,20.66352 0 0 0 6.40109,-2.29553a8.1008,8.4583 0 0 0 3.95106,-5.51731c0.67086,-4.00163 -2.31546,-7.6372 -5.41892,-10.08736a39.97212,41.73616 0 0 0 -33.58979,-7.00838c-3.7522,1.0127 -7.51106,2.72374 -9.9482,5.87002s-3.15909,7.99683 -0.8371,11.23666l-3.33499,-3.097l0.00002,-0.00001z"/>
  <polygon stroke="null" id="svg_16" fill="#36AE7C" points="510.1163024902344,368.92877197265625 510.1163024902344,477.6944580078125 483.0950927734375,476.87872314453125 344.8526916503906,476.87872314453125 344.8526916503906,388.1471862792969 385.1900634765625,368.92877197265625 510.1163024902344,368.92877197265625 "/>
  <polygon stroke="null" id="svg_17" opacity="0.1" points="510.1163024902344,368.92877197265625 510.1163024902344,369.2676086425781 500.4154052734375,376.046630859375 483.0950927734375,388.1471862792969 344.8526916503906,388.1471862792969 385.1900634765625,368.92877197265625 510.1163024902344,368.92877197265625 "/>
  <polygon stroke="null" id="svg_18" opacity="0.1" points="510.1163024902344,368.92877197265625 510.1163024902344,477.6944580078125 483.0950927734375,476.87872314453125 483.2906799316406,387.9417724609375 500.4154052734375,376.046630859375 509.9595947265625,368.92877197265625 510.1163024902344,368.92877197265625 "/>
  <polygon stroke="null" id="svg_19" fill="#fff" points="473.6953125,380.5813903808594 389.4976501464844,380.5813903808594 395.7633972167969,376.9018249511719 476.43701171875,376.9018249511719 473.6953125,380.5813903808594 "/>
  <path stroke="null" fill="#e6e6e6" d="m568.88865,478.8051l-526.77731,0a1.11134,1.16039 0 0 1 0,-2.32078l526.77731,0a1.11134,1.16039 0 0 1 0,2.32078z" data-name="Path 717" id="f35e270b-7f5a-4111-9d26-c6e282c8c57d"/>
  <path stroke="null" id="svg_20" fill="#ffffff" d="m428.92517,171.10009l-91.13025,0a10.01356,10.45547 0 0 1 -10.0021,-10.44351l0,-103.27471a10.01356,10.45547 0 0 1 10.0021,-10.44351l91.13025,0a10.01356,10.45547 0 0 1 10.0021,10.44351l0,103.27471a10.01356,10.45547 0 0 1 -10.0021,10.44351zm-91.13025,-121.84096a7.78816,8.13186 0 0 0 -7.77941,8.12273l0,103.27471a7.78816,8.13186 0 0 0 7.77941,8.12273l91.13025,0a7.78816,8.13186 0 0 0 7.77941,-8.12273l0,-103.27471a7.78816,8.13186 0 0 0 -7.77941,-8.12273l-91.13025,0z"/>
  <path stroke="null" id="svg_21" fill="#36AE7C" d="m356.14879,89.87278l-8.89076,0a5.00661,5.22756 0 0 1 -5.00105,-5.22176l0,-9.28312a5.00661,5.22756 0 0 1 5.00105,-5.22176l8.89076,0a5.00661,5.22756 0 0 1 5.00105,5.22176l0,9.28312a5.00661,5.22756 0 0 1 -5.00105,5.22176z"/>
  <path stroke="null" id="svg_22" fill="#EB5353" d="m356.14879,118.88254l-8.89076,0a5.00661,5.22756 0 0 1 -5.00105,-5.22176l0,-9.28312a5.00661,5.22756 0 0 1 5.00105,-5.22176l8.89076,0a5.00661,5.22756 0 0 1 5.00105,5.22176l0,9.28312a5.00661,5.22756 0 0 1 -5.00105,5.22176z"/>
  <path stroke="null" id="svg_23" fill="#36AE7C" d="m421.12906,84.22976l-41.50802,0a3.33768,3.48498 0 0 1 -3.33403,-3.48117l0,-1.47824a3.33768,3.48498 0 0 1 3.33403,-3.48117l41.50802,0a3.33768,3.48498 0 0 1 3.33403,3.48117l0,1.47824a3.33768,3.48498 0 0 1 -3.33403,3.48117z"/>
  <path stroke="null" id="svg_24" fill="#EB5353" d="m421.12906,113.23951l-41.50802,0a3.33768,3.48498 0 0 1 -3.33403,-3.48117l0,-1.47824a3.33768,3.48498 0 0 1 3.33403,-3.48117l41.50802,0a3.33768,3.48498 0 0 1 3.33403,3.48117l0,1.47824a3.33768,3.48498 0 0 1 -3.33403,3.48117z"/>
  <path stroke="null" id="svg_25" fill="#36AE7C" d="m356.14879,147.89229l-8.89076,0a5.00661,5.22756 0 0 1 -5.00105,-5.22176l0,-9.28312a5.00661,5.22756 0 0 1 5.00105,-5.22176l8.89076,0a5.00661,5.22756 0 0 1 5.00105,5.22176l0,9.28312a5.00661,5.22756 0 0 1 -5.00105,5.22176z"/>
  <path stroke="null" id="svg_26" fill="#36AE7C" d="m421.12906,142.24926l-41.50802,0a3.33768,3.48498 0 0 1 -3.33403,-3.48117l0,-1.47824a3.33768,3.48498 0 0 1 3.33403,-3.48117l41.50802,0a3.33768,3.48498 0 0 1 3.33403,3.48117l0,1.47824a3.33768,3.48498 0 0 1 -3.33403,3.48117z"/>
  <path stroke="null" id="svg_27" fill="#ffffff" d="m431.92517,168.10009l-91.13025,0a10.01356,10.45547 0 0 1 -10.0021,-10.44351l0,-103.27471a10.01356,10.45547 0 0 1 10.0021,-10.44351l91.13025,0a10.01356,10.45547 0 0 1 10.0021,10.44351l0,103.27471a10.01356,10.45547 0 0 1 -10.0021,10.44351zm-91.13025,-121.84096a7.78816,8.13186 0 0 0 -7.77941,8.12273l0,103.27471a7.78816,8.13186 0 0 0 7.77941,8.12273l91.13025,0a7.78816,8.13186 0 0 0 7.77941,-8.12273l0,-103.27471a7.78816,8.13186 0 0 0 -7.77941,-8.12273l-91.13025,0z"/>
  <path stroke="null" id="svg_28" fill="#ffffff" d="m430.92517,169.10009l-91.13025,0a10.01356,10.45547 0 0 1 -10.0021,-10.44351l0,-103.27471a10.01356,10.45547 0 0 1 10.0021,-10.44351l91.13025,0a10.01356,10.45547 0 0 1 10.0021,10.44351l0,103.27471a10.01356,10.45547 0 0 1 -10.0021,10.44351zm-91.13025,-121.84096a7.78816,8.13186 0 0 0 -7.77941,8.12273l0,103.27471a7.78816,8.13186 0 0 0 7.77941,8.12273l91.13025,0a7.78816,8.13186 0 0 0 7.77941,-8.12273l0,-103.27471a7.78816,8.13186 0 0 0 -7.77941,-8.12273l-91.13025,0z"/>
  <path stroke="null" id="svg_29" fill="#ffffff" d="m429.92517,170.10009l-91.13025,0a10.01356,10.45547 0 0 1 -10.0021,-10.44351l0,-103.27471a10.01356,10.45547 0 0 1 10.0021,-10.44351l91.13025,0a10.01356,10.45547 0 0 1 10.0021,10.44351l0,103.27471a10.01356,10.45547 0 0 1 -10.0021,10.44351zm-91.13025,-121.84096a7.78816,8.13186 0 0 0 -7.77941,8.12273l0,103.27471a7.78816,8.13186 0 0 0 7.77941,8.12273l91.13025,0a7.78816,8.13186 0 0 0 7.77941,-8.12273l0,-103.27471a7.78816,8.13186 0 0 0 -7.77941,-8.12273l-91.13025,0z"/>
 </g>

</svg>